<svg xmlns="http://www.w3.org/2000/svg" xmlns:xlink="http://www.w3.org/1999/xlink" width="512" zoomAndPan="magnify" viewBox="0 0 384 383.999986" height="512" preserveAspectRatio="xMidYMid meet" version="1.0"><defs><clipPath id="95b1bff273"><path d="M 93 120.304688 L 254 120.304688 L 254 182 L 93 182 Z M 93 120.304688 " clip-rule="nonzero"/></clipPath><clipPath id="45485e4e03"><path d="M 83 181 L 258 181 L 258 294.304688 L 83 294.304688 Z M 83 181 " clip-rule="nonzero"/></clipPath></defs><g clip-path="url(#95b1bff273)"><path fill="#9c27b0" d="M 96.601562 167.945312 C 110.734375 141.355469 138.710938 123.214844 170.847656 123.214844 C 208.265625 123.214844 240.046875 147.808594 250.898438 181.6875 C 251.480469 181.578125 252.0625 181.46875 252.648438 181.367188 C 253.03125 181.300781 253.421875 181.234375 253.808594 181.171875 C 252.984375 178.558594 252.039062 175.976562 250.964844 173.429688 C 246.585938 163.070312 240.316406 153.769531 232.332031 145.78125 C 224.34375 137.789062 215.046875 131.519531 204.695312 127.136719 C 193.972656 122.597656 182.585938 120.296875 170.847656 120.296875 C 159.113281 120.296875 147.722656 122.597656 137.003906 127.136719 C 126.648438 131.519531 117.351562 137.789062 109.367188 145.78125 C 102.714844 152.4375 97.257812 160.007812 93.089844 168.339844 C 93.832031 168.25 94.574219 168.164062 95.320312 168.078125 C 95.746094 168.03125 96.171875 167.988281 96.601562 167.945312 Z M 96.601562 167.945312 " fill-opacity="1" fill-rule="nonzero"/></g><g clip-path="url(#45485e4e03)"><path fill="#9c27b0" d="M 253.78125 193.691406 C 254.507812 198.117188 254.882812 202.664062 254.882812 207.292969 C 254.882812 253.652344 217.183594 291.371094 170.847656 291.371094 C 124.511719 291.371094 86.8125 253.652344 86.8125 207.292969 C 86.8125 198.234375 88.253906 189.503906 90.917969 181.320312 C 89.84375 181.480469 88.765625 181.640625 87.691406 181.8125 C 85.175781 190.023438 83.898438 198.5625 83.898438 207.292969 C 83.898438 219.035156 86.199219 230.429688 90.734375 241.15625 C 95.113281 251.515625 101.382812 260.816406 109.367188 268.808594 C 117.351562 276.796875 126.652344 283.070312 137.003906 287.449219 C 147.726562 291.988281 159.113281 294.289062 170.847656 294.289062 C 182.585938 294.289062 193.976562 291.988281 204.695312 287.449219 C 215.046875 283.070312 224.34375 276.796875 232.332031 268.808594 C 240.316406 260.816406 246.585938 251.515625 250.964844 241.15625 C 255.5 230.429688 257.800781 219.035156 257.800781 207.292969 C 257.800781 202.515625 257.414062 197.796875 256.65625 193.15625 C 255.695312 193.320312 254.738281 193.5 253.78125 193.691406 Z M 253.78125 193.691406 " fill-opacity="1" fill-rule="nonzero"/></g><path fill="#9c27b0" d="M 390.316406 197.355469 C 390.007812 196.992188 389.570312 196.671875 389.003906 196.390625 C 388.4375 196.109375 387.820312 195.914062 387.152344 195.8125 C 386.480469 195.710938 385.8125 195.761719 385.144531 195.964844 C 384.472656 196.171875 383.855469 196.507812 383.292969 196.96875 C 378.660156 197.949219 373.703125 198.320312 368.429688 198.089844 C 363.15625 197.859375 357.609375 197.265625 351.792969 196.3125 C 345.976562 195.363281 339.953125 194.203125 333.726562 192.835938 C 327.5 191.476562 321.117188 190.160156 314.578125 188.898438 C 308.042969 187.636719 301.375 186.554688 294.582031 185.652344 C 287.789062 184.75 280.957031 184.3125 274.085938 184.339844 C 267.214844 184.363281 260.34375 184.96875 253.472656 186.152344 C 246.601562 187.339844 239.769531 189.371094 232.972656 192.253906 C 231.839844 192.871094 230.59375 193.839844 229.230469 195.148438 C 227.867188 196.464844 226.410156 197.957031 224.867188 199.628906 C 223.324219 201.304688 221.6875 203.066406 219.964844 204.921875 C 218.242188 206.773438 216.453125 208.511719 214.597656 210.132812 C 212.746094 211.757812 210.828125 213.183594 208.847656 214.421875 C 206.867188 215.65625 204.871094 216.507812 202.867188 216.96875 C 202.144531 217.125 201.371094 217.210938 200.550781 217.238281 C 199.726562 217.261719 198.980469 217.160156 198.3125 216.929688 C 197.640625 216.699219 197.085938 216.324219 196.648438 215.808594 C 196.214844 215.296875 195.996094 214.601562 195.996094 213.722656 C 195.996094 212.847656 196.214844 211.898438 196.648438 210.863281 C 197.085938 209.835938 197.601562 208.765625 198.195312 207.65625 C 198.785156 206.550781 199.351562 205.445312 199.894531 204.335938 C 200.433594 203.230469 200.808594 202.148438 201.011719 201.09375 C 201.21875 200.039062 201.152344 199.03125 200.820312 198.078125 C 200.484375 197.128906 199.726562 196.265625 198.542969 195.492188 C 198.027344 195.183594 197.335938 194.847656 196.457031 194.488281 C 195.582031 194.128906 194.707031 193.742188 193.832031 193.332031 C 192.957031 192.921875 192.183594 192.496094 191.519531 192.054688 C 190.847656 191.617188 190.460938 191.140625 190.359375 190.628906 C 190.308594 190.472656 190.4375 190.292969 190.746094 190.085938 C 191.054688 189.882812 191.402344 189.636719 191.789062 189.351562 C 192.171875 189.070312 192.507812 188.761719 192.789062 188.425781 C 193.070312 188.089844 193.164062 187.691406 193.058594 187.226562 C 193.007812 186.761719 192.8125 186.363281 192.480469 186.027344 C 192.144531 185.695312 191.730469 185.449219 191.242188 185.296875 C 190.753906 185.140625 190.214844 185.089844 189.621094 185.140625 C 189.027344 185.191406 188.453125 185.371094 187.886719 185.679688 C 186.390625 186.609375 185.390625 187.730469 184.875 189.042969 C 184.359375 190.355469 184.207031 191.527344 184.410156 192.554688 C 184.492188 192.953125 184.621094 193.324219 184.789062 193.683594 C 181.765625 195.324219 178.066406 197.417969 173.679688 199.96875 C 169.253906 202.542969 164.648438 205.402344 159.859375 208.542969 C 158.78125 207.566406 157.582031 206.5625 156.269531 205.53125 C 154.957031 204.503906 153.695312 203.421875 152.488281 202.289062 C 151.277344 201.15625 150.234375 199.945312 149.359375 198.65625 C 148.484375 197.367188 147.972656 195.953125 147.816406 194.40625 C 147.660156 192.863281 147.839844 191.460938 148.355469 190.199219 C 148.871094 188.9375 149.59375 187.96875 150.519531 187.300781 C 151.445312 186.632812 152.527344 186.335938 153.761719 186.414062 C 154.996094 186.492188 156.28125 187.09375 157.621094 188.226562 C 158.910156 189.308594 160.066406 189.746094 161.097656 189.542969 C 162.125 189.335938 162.832031 188.820312 163.21875 187.996094 C 163.605469 187.171875 163.566406 186.257812 163.101562 185.253906 C 162.636719 184.25 161.582031 183.515625 159.9375 183.054688 C 152.9375 179.398438 145.859375 176.734375 138.703125 175.058594 C 131.550781 173.386719 124.398438 172.40625 117.242188 172.125 C 110.089844 171.84375 102.957031 172.101562 95.855469 172.898438 C 88.753906 173.695312 81.78125 174.726562 74.933594 175.988281 C 68.089844 177.25 61.398438 178.601562 54.859375 180.039062 C 48.324219 181.484375 42.019531 182.71875 35.945312 183.746094 C 29.871094 184.777344 24.066406 185.449219 18.535156 185.757812 C 13 186.066406 7.816406 185.707031 2.976562 184.675781 C 2.410156 184.210938 1.792969 183.878906 1.125 183.671875 C 0.457031 183.46875 -0.214844 183.414062 -0.882812 183.515625 C -1.550781 183.621094 -2.171875 183.8125 -2.738281 184.09375 C -3.300781 184.378906 -3.738281 184.699219 -4.050781 185.058594 C -4.359375 185.421875 -4.460938 185.78125 -4.359375 186.140625 C -4.253906 186.503906 -3.894531 186.785156 -3.277344 186.992188 C 2.847656 188.125 9.101562 188.601562 15.480469 188.417969 C 21.863281 188.238281 28.3125 187.671875 34.824219 186.71875 C 41.332031 185.765625 47.894531 184.59375 54.511719 183.203125 C 61.125 181.8125 67.765625 180.476562 74.429688 179.1875 C 81.09375 177.898438 87.746094 176.804688 94.386719 175.902344 C 101.027344 175.003906 107.613281 174.578125 114.152344 174.628906 C 120.6875 174.679688 127.160156 175.351562 133.566406 176.636719 C 139.972656 177.925781 146.265625 180.140625 152.445312 183.28125 C 151.054688 183.746094 149.753906 184.378906 148.542969 185.171875 C 147.335938 185.972656 146.265625 186.898438 145.339844 187.957031 C 144.410156 189.011719 143.667969 190.183594 143.101562 191.46875 C 142.53125 192.757812 142.226562 194.097656 142.171875 195.488281 C 142.070312 197.601562 142.546875 199.351562 143.601562 200.738281 C 144.65625 202.128906 145.957031 203.367188 147.5 204.445312 C 149.042969 205.527344 150.679688 206.546875 152.402344 207.496094 C 154.125 208.453125 155.582031 209.496094 156.765625 210.625 C 153.316406 212.945312 149.972656 215.367188 146.726562 217.886719 C 143.484375 220.410156 140.578125 222.945312 138.003906 225.496094 C 135.429688 228.042969 133.292969 230.578125 131.597656 233.101562 C 129.898438 235.625 128.894531 238.046875 128.585938 240.363281 C 128.382812 241.960938 128.46875 243.335938 128.855469 244.496094 C 129.242188 245.65625 129.859375 246.605469 130.707031 247.355469 C 131.558594 248.101562 132.589844 248.65625 133.796875 249.015625 C 135.007812 249.375 136.332031 249.558594 137.773438 249.558594 C 139.472656 249.558594 141.3125 249.121094 143.296875 248.246094 C 145.277344 247.367188 147.257812 246.195312 149.242188 244.730469 C 151.222656 243.261719 153.125 241.574219 154.953125 239.667969 C 156.78125 237.761719 158.390625 235.757812 159.777344 233.644531 C 162.402344 229.628906 164.046875 225.742188 164.71875 221.980469 C 165.386719 218.21875 164.589844 214.71875 162.324219 211.472656 C 164.742188 209.828125 167.148438 208.253906 169.542969 206.761719 C 171.9375 205.269531 174.199219 203.867188 176.335938 202.550781 C 178.46875 201.238281 180.464844 200.03125 182.320312 198.921875 C 184.113281 197.847656 185.667969 196.929688 186.980469 196.171875 C 187.394531 196.476562 187.832031 196.75 188.300781 196.988281 C 189.253906 197.480469 190.269531 197.828125 191.351562 198.03125 C 192.429688 198.238281 193.484375 198.261719 194.515625 198.109375 C 193.640625 199.242188 192.828125 200.59375 192.082031 202.164062 C 191.335938 203.734375 190.769531 205.371094 190.382812 207.066406 C 189.996094 208.769531 189.867188 210.464844 189.996094 212.167969 C 190.125 213.867188 190.679688 215.410156 191.660156 216.800781 C 192.945312 218.449219 194.527344 219.503906 196.40625 219.96875 C 198.285156 220.433594 200.152344 220.511719 202.003906 220.199219 C 203.957031 219.835938 205.941406 219.15625 207.949219 218.152344 C 209.957031 217.148438 211.9375 215.9375 213.894531 214.519531 C 215.847656 213.105469 217.726562 211.574219 219.527344 209.925781 C 221.328125 208.277344 223.015625 206.628906 224.585938 204.980469 C 226.152344 203.335938 227.570312 201.761719 228.832031 200.269531 C 230.089844 198.773438 231.160156 197.488281 232.035156 196.40625 C 238.265625 193.058594 244.621094 190.679688 251.105469 189.261719 C 257.589844 187.847656 264.140625 187.0625 270.753906 186.90625 C 277.367188 186.75 284.03125 187.125 290.75 188.027344 C 297.46875 188.925781 304.183594 190.023438 310.902344 191.308594 C 317.621094 192.59375 324.335938 193.949219 331.054688 195.363281 C 337.769531 196.777344 344.421875 197.976562 351.011719 198.953125 C 357.597656 199.933594 364.109375 200.515625 370.542969 200.695312 C 376.976562 200.875 383.304688 200.398438 389.535156 199.265625 C 390.152344 199.0625 390.511719 198.777344 390.617188 198.414062 C 390.726562 198.078125 390.625 197.714844 390.316406 197.355469 Z M 159.167969 216.898438 C 158.910156 218.648438 158.164062 220.695312 156.929688 223.039062 C 155.695312 225.382812 153.917969 228.148438 151.601562 231.34375 C 150.46875 232.886719 149.273438 234.355469 148.011719 235.742188 C 146.75 237.132812 145.488281 238.410156 144.230469 239.566406 C 142.96875 240.726562 141.734375 241.742188 140.523438 242.617188 C 139.316406 243.492188 138.195312 244.136719 137.167969 244.550781 C 136.191406 244.960938 135.328125 245.089844 134.582031 244.9375 C 133.835938 244.78125 133.242188 244.460938 132.808594 243.972656 C 132.371094 243.480469 132.101562 242.835938 131.996094 242.039062 C 131.894531 241.242188 131.972656 240.40625 132.226562 239.53125 C 132.742188 237.78125 133.820312 235.859375 135.46875 233.777344 C 137.117188 231.691406 139.152344 229.539062 141.570312 227.328125 C 143.988281 225.113281 146.6875 222.859375 149.675781 220.570312 C 152.660156 218.277344 155.746094 216.023438 158.941406 213.8125 C 159.242188 214.734375 159.320312 215.765625 159.167969 216.898438 Z M 159.167969 216.898438 " fill-opacity="1" fill-rule="nonzero"/></svg>