<?xml version="1.0" standalone="no"?>
<!DOCTYPE svg PUBLIC "-//W3C//DTD SVG 20010904//EN"
 "http://www.w3.org/TR/2001/REC-SVG-20010904/DTD/svg10.dtd">
<svg version="1.0" xmlns="http://www.w3.org/2000/svg"
 width="512.000000pt" height="512.000000pt" viewBox="0 0 512.000000 512.000000"
 preserveAspectRatio="xMidYMid meet">
<metadata>
Created by potrace 1.14, written by Peter Selinger 2001-2017
</metadata>
<g transform="translate(0.000000,512.000000) scale(0.100000,-0.100000)"
fill="#000000" stroke="none">
<path d="M2142 3508 c-241 -24 -489 -143 -670 -321 -108 -105 -232 -282 -217
-307 11 -18 32 3 94 96 214 322 574 509 955 498 135 -4 204 -16 326 -56 304
-98 571 -350 686 -645 20 -54 33 -73 46 -73 24 0 23 9 -8 88 -97 246 -288 458
-535 595 -71 39 -225 93 -314 111 -92 18 -256 24 -363 14z"/>
<path d="M1388 2825 c-2 -2 -46 -6 -98 -10 -52 -3 -97 -8 -100 -10 -3 -2 -30
-6 -60 -10 -30 -4 -57 -8 -60 -10 -3 -2 -27 -6 -55 -10 -27 -3 -104 -18 -170
-32 -66 -14 -131 -27 -145 -29 -14 -3 -68 -13 -120 -24 -255 -52 -424 -60
-552 -25 -25 6 -28 5 -28 -19 0 -14 6 -27 13 -27 6 -1 23 -3 37 -5 44 -6 233
-5 295 1 53 5 85 10 220 32 17 2 98 18 180 34 244 49 396 77 455 84 30 4 77
11 105 15 55 10 370 6 425 -4 74 -15 188 -48 243 -73 l57 -26 -27 -14 c-65
-33 -105 -92 -106 -155 -1 -52 24 -83 116 -144 l76 -50 -86 -65 c-119 -88
-195 -160 -241 -229 -81 -121 -59 -210 57 -226 97 -14 265 116 336 259 46 93
53 142 30 203 -15 39 -15 48 -4 55 261 164 306 189 324 183 11 -3 34 -8 51
-11 l31 -5 -24 -51 c-60 -123 -25 -230 78 -243 104 -13 252 83 404 259 35 42
67 67 110 87 61 28 176 65 230 74 17 2 50 8 75 12 65 10 289 12 362 3 35 -5
80 -11 101 -14 75 -9 226 -37 442 -80 121 -24 243 -47 270 -51 28 -3 58 -8 68
-10 76 -14 299 -24 375 -16 36 3 42 7 42 27 0 21 -2 22 -47 13 -57 -10 -197
-9 -308 4 -44 5 -208 36 -365 68 -157 32 -305 61 -330 64 -25 3 -56 8 -70 11
-14 3 -50 8 -80 11 -30 3 -68 8 -85 10 -39 6 -302 5 -335 0 -14 -3 -47 -7 -75
-11 -79 -10 -133 -23 -235 -58 l-95 -32 -135 -135 c-138 -139 -204 -185 -273
-194 -75 -9 -89 39 -38 139 51 100 40 136 -56 174 -47 19 -60 38 -38 54 25 19
15 51 -17 55 -39 5 -78 -36 -78 -83 0 -19 -4 -35 -8 -35 -4 0 -79 -42 -165
-94 l-158 -94 -54 47 c-82 70 -100 98 -100 152 0 83 56 116 121 71 31 -20 40
-22 61 -13 17 8 23 18 21 34 -5 38 -236 140 -363 161 -16 3 -46 8 -65 11 -19
3 -48 8 -63 11 -29 6 -294 14 -299 9z m728 -601 c-18 -136 -254 -395 -334
-366 -22 8 -25 51 -6 94 23 52 127 156 246 246 51 39 95 71 97 72 2 0 1 -20
-3 -46z"/>
<path d="M1160 2663 c-29 -100 -39 -193 -36 -333 2 -80 7 -158 11 -175 3 -16
10 -49 16 -72 5 -23 22 -79 39 -124 141 -386 481 -673 884 -745 107 -19 310
-19 411 1 314 60 585 239 758 502 92 140 155 300 182 458 8 52 13 234 7 308
-4 53 -6 58 -25 55 -19 -3 -21 -8 -17 -43 10 -89 3 -273 -14 -354 -23 -113
-39 -158 -96 -277 -151 -313 -442 -536 -792 -610 -34 -7 -166 -18 -218 -18
-345 0 -675 170 -896 460 -84 110 -171 313 -199 464 -11 58 -15 301 -5 355 17
99 20 114 30 140 14 37 13 45 -10 45 -13 0 -22 -11 -30 -37z"/>
</g>
</svg>
