<?xml version="1.0" standalone="no"?>
<!DOCTYPE svg PUBLIC "-//W3C//DTD SVG 20010904//EN"
 "http://www.w3.org/TR/2001/REC-SVG-20010904/DTD/svg10.dtd">
<svg version="1.0" xmlns="http://www.w3.org/2000/svg"
 width="512.000000pt" height="512.000000pt" viewBox="0 0 512.000000 512.000000"
 preserveAspectRatio="xMidYMid meet">
<metadata>
Created by potrace 1.14, written by Peter Selinger 2001-2017
</metadata>
<g transform="translate(0.000000,512.000000) scale(0.100000,-0.100000)"
fill="#000000" stroke="none">
<path d="M1310 4401 c-121 -43 -172 -68 -252 -122 -258 -174 -362 -494 -261
-799 34 -105 77 -174 153 -251 114 -115 155 -138 538 -290 344 -137 345 -138
420 -193 156 -115 234 -323 196 -527 -33 -176 -154 -291 -349 -332 -69 -15
-192 -16 -250 -2 -16 4 -34 8 -40 9 -285 62 -562 301 -705 609 -18 37 -36 67
-40 67 -4 0 -9 -410 -9 -910 -1 -623 -5 -927 -12 -963 -23 -106 -95 -205 -189
-260 l-45 -27 463 0 c254 0 462 2 462 4 0 2 -22 18 -49 36 -90 57 -155 145
-187 255 -16 54 -18 111 -19 550 0 270 1 504 3 520 l4 31 76 -24 c116 -36 147
-51 180 -86 89 -95 540 -726 809 -1131 l99 -150 345 0 c470 0 644 15 644 55 0
16 -61 18 -205 7 -41 -4 -105 -7 -142 -8 -64 -2 -68 -1 -115 38 -97 82 -175
175 -424 508 -509 681 -537 720 -525 733 3 3 39 20 79 37 219 95 367 231 444
406 62 140 84 372 48 508 -64 248 -229 388 -677 576 -409 173 -445 190 -501
233 -116 91 -171 210 -171 372 0 166 66 298 226 452 49 48 88 92 86 97 -1 5
-50 -8 -108 -28z"/>
<path d="M4507 2132 c-41 -22 -129 -76 -195 -120 -123 -83 -138 -90 -144 -71
-8 23 -61 -18 -164 -127 -92 -97 -109 -111 -125 -101 -42 26 -88 -25 -187
-207 -26 -49 -53 -91 -59 -93 -6 -2 -13 11 -17 28 -6 31 -6 32 -26 14 -28 -25
-73 -123 -100 -215 -28 -97 -30 -99 -46 -60 -11 25 -17 30 -27 21 -19 -15 -35
-74 -43 -156 -4 -39 -8 -72 -10 -74 -2 -2 -13 4 -25 14 -16 15 -22 16 -28 6
-9 -14 -4 -77 11 -136 5 -22 10 -40 9 -40 -4 0 51 -141 58 -148 5 -5 -7 -34
-25 -65 -32 -53 -43 -92 -26 -92 4 0 31 31 60 69 60 79 68 82 222 86 136 4
212 21 311 71 79 39 87 66 24 78 -19 4 -35 10 -35 14 0 21 94 105 214 192 126
92 153 117 161 147 8 35 -11 53 -64 60 -22 3 -41 7 -41 9 0 18 44 62 157 160
142 122 174 163 147 185 -8 6 -33 12 -56 12 l-42 0 77 71 c83 76 117 119 117
150 0 17 -6 18 -60 13 -33 -4 -60 -3 -60 1 0 5 32 62 71 128 80 134 93 159
103 192 7 20 4 22 -28 22 -21 0 -64 -15 -109 -38z m123 21 c0 -9 -139 -253
-156 -273 -7 -8 -16 -28 -20 -44 -8 -34 9 -48 43 -35 34 13 73 11 73 -3 0 -7
-46 -56 -101 -109 -58 -55 -98 -102 -95 -108 4 -6 29 -11 57 -11 63 0 63 -13
3 -70 -43 -40 -51 -44 -113 -48 -36 -2 -70 -8 -75 -13 -6 -5 17 -6 55 -2 l64
6 -45 -37 c-55 -46 -136 -130 -150 -155 -13 -25 3 -37 54 -44 84 -11 75 -36
-45 -124 -106 -79 -94 -70 -161 -126 -61 -52 -66 -54 -216 -57 -40 -1 -74 -6
-77 -10 -3 -5 45 -6 106 -4 l111 5 -26 -31 c-32 -38 -32 -48 -3 -59 24 -9 29
-7 -60 -26 -45 -10 -58 -14 -83 -24 -14 -5 -18 -10 -10 -10 18 -1 168 34 193
44 37 15 14 -6 -31 -29 -62 -31 -142 -54 -217 -60 -231 -20 -228 -20 -216 2
17 32 27 35 119 33 48 -1 84 0 81 3 -2 3 -37 6 -77 7 -40 1 -75 5 -77 9 -4 7
44 80 54 80 3 1 47 3 96 5 50 3 99 7 110 9 11 3 33 5 48 5 16 1 26 5 22 11 -4
6 -10 8 -14 6 -7 -5 -173 -19 -211 -19 -41 1 -44 2 -26 22 13 15 28 19 57 17
21 -2 39 1 39 5 0 5 -16 9 -35 9 -33 0 -34 1 -23 20 12 18 22 20 100 18 48 -1
91 1 95 5 6 7 -94 11 -144 7 -30 -2 -29 5 7 51 28 34 34 37 57 28 30 -11 203
-10 203 1 0 4 -39 6 -87 5 -49 -1 -98 1 -111 6 -20 8 -21 11 -10 29 12 19 19
20 68 15 116 -13 243 -6 293 16 17 7 13 8 -18 5 -112 -14 -193 -17 -251 -11
-63 6 -65 8 -52 27 13 19 26 21 159 23 144 4 229 11 239 22 3 3 -49 2 -115 -3
-140 -9 -232 -10 -241 -2 -3 4 4 20 17 37 l23 31 80 -6 c45 -4 78 -3 74 0 -3
4 -34 9 -68 11 -35 2 -65 6 -67 9 -3 3 10 25 28 51 28 39 37 45 58 40 15 -3
37 -8 51 -11 50 -11 128 -11 154 0 22 9 10 11 -71 12 -54 0 -109 5 -122 11
l-23 9 24 28 c22 27 26 27 65 17 23 -6 61 -14 85 -17 24 -3 48 -7 55 -9 7 -2
15 0 18 5 4 6 -6 10 -22 11 -58 1 -163 27 -163 39 0 22 30 31 67 21 21 -6 47
-11 58 -10 11 0 -2 7 -28 14 -58 16 -65 21 -48 38 7 7 40 12 79 13 83 0 181
12 202 25 15 9 -49 4 -120 -9 -19 -4 -57 -5 -83 -2 -47 5 -47 5 -32 28 11 15
26 22 51 22 19 0 34 4 34 9 0 5 -11 8 -25 5 -29 -5 -32 6 -7 34 10 13 34 23
62 27 98 12 118 17 149 36 46 28 32 35 -17 10 -41 -21 -150 -43 -156 -32 -9
13 34 52 61 55 65 9 102 19 98 26 -3 5 -20 4 -38 -1 -17 -5 -42 -9 -55 -9 -21
0 -19 4 20 36 23 20 60 48 81 61 22 13 36 27 33 31 -4 3 -20 -4 -36 -16 -16
-12 -32 -22 -35 -22 -5 0 39 65 55 80 3 3 23 28 45 55 22 28 43 52 47 53 5 2
13 13 20 25 11 21 10 21 -8 7 -33 -25 -48 -42 -114 -130 -35 -47 -68 -89 -72
-95 -17 -18 33 100 58 138 13 20 20 37 15 37 -13 0 -52 -68 -82 -140 -29 -70
-69 -126 -79 -110 -4 6 -6 51 -4 98 2 56 0 82 -6 72 -5 -8 -8 -56 -8 -107 1
-86 -1 -95 -25 -125 -30 -36 -29 -39 -31 69 -1 34 -5 66 -10 70 -4 4 -6 -35
-4 -88 3 -92 2 -97 -23 -124 l-26 -27 -13 51 c-7 29 -13 74 -13 101 -1 26 -5
46 -9 44 -11 -7 -2 -123 12 -171 11 -35 11 -45 0 -59 -12 -14 -17 -9 -42 41
-16 31 -31 74 -33 97 -2 22 -7 43 -11 47 -17 15 7 -102 30 -148 14 -28 26 -56
26 -63 -1 -7 -15 -30 -33 -51 l-33 -38 -13 78 c-8 43 -15 90 -16 105 -1 15 -5
31 -8 35 -10 10 -8 -47 3 -108 22 -110 22 -126 5 -153 -10 -14 -21 -26 -26
-26 -12 0 -37 95 -44 170 -3 35 -8 67 -11 70 -11 10 0 -124 14 -174 25 -92 25
-93 -3 -130 -15 -20 -31 -36 -35 -36 -16 0 -40 97 -44 178 -3 46 -7 87 -11 90
-13 14 -1 -158 16 -220 11 -37 19 -72 19 -78 0 -19 -17 -10 -29 16 -6 15 -14
24 -17 21 -3 -3 1 -19 10 -35 13 -25 13 -32 2 -41 -17 -14 -44 26 -72 107 -10
28 -22 52 -26 52 -5 0 -8 -2 -8 -4 0 -7 31 -80 57 -133 23 -48 24 -54 9 -69
-13 -12 -20 -13 -30 -5 -16 13 -42 100 -45 149 -1 6 -6 12 -12 12 -5 0 -8 -3
-6 -7 3 -5 8 -26 11 -48 4 -22 17 -61 29 -86 l23 -47 -32 -37 -31 -38 -16 44
c-22 62 -35 109 -41 147 -2 19 -8 37 -12 40 -13 13 6 -88 32 -167 l26 -80 -25
-30 -25 -30 -20 47 c-11 26 -23 61 -27 77 -5 17 -9 33 -10 38 -2 4 -3 17 -4
30 -2 21 -3 21 -10 2 -8 -19 21 -123 49 -174 12 -24 4 -65 -11 -56 -5 4 -9 -2
-9 -13 0 -10 -9 -27 -19 -36 -18 -17 -20 -15 -39 37 -11 29 -24 70 -27 90 -4
20 -11 37 -15 37 -11 0 7 -74 34 -141 22 -54 22 -58 5 -80 l-17 -23 -23 45
c-13 24 -30 57 -38 72 -7 15 -16 25 -19 23 -2 -3 12 -39 33 -80 36 -73 36 -75
20 -106 -16 -30 -17 -31 -30 -13 -7 10 -18 38 -24 61 -7 23 -14 42 -17 42 -10
0 5 -62 25 -100 17 -33 18 -40 6 -50 -12 -10 -18 -5 -33 31 -27 62 -50 146
-55 202 -4 52 -3 54 20 31 24 -24 32 -6 44 92 5 49 14 100 20 114 l11 25 14
-28 c27 -52 33 -44 84 118 17 55 42 118 55 140 l25 40 6 -33 c4 -17 12 -32 19
-32 18 0 54 51 99 140 42 82 91 152 119 169 12 8 22 8 37 -1 18 -12 31 -2 141
111 110 112 123 123 135 107 11 -16 26 -9 166 82 177 115 308 181 308 155z"/>
<path d="M4265 1580 c-4 -6 5 -9 19 -8 15 1 26 6 26 10 0 12 -38 10 -45 -2z"/>
<path d="M3746 1420 c10 -59 25 -112 30 -108 6 7 -17 122 -28 133 -5 5 -6 -5
-2 -25z"/>
<path d="M3587 1363 c7 -40 13 -57 19 -50 7 7 -7 77 -16 77 -4 0 -5 -12 -3
-27z"/>
<path d="M4100 1229 c0 -5 11 -9 25 -9 14 0 25 2 25 4 0 2 -11 6 -25 8 -14 3
-25 1 -25 -3z"/>
<path d="M3421 1120 c-1 -18 16 -46 23 -40 2 3 -2 16 -9 30 -8 15 -14 19 -14
10z"/>
<path d="M4095 1073 c-11 -3 -29 -12 -40 -20 l-20 -15 20 7 c11 4 32 10 48 13
15 2 27 8 27 13 0 10 -3 10 -35 2z"/>
<path d="M3490 1057 c0 -2 9 -22 20 -45 11 -22 20 -46 20 -52 0 -5 5 -10 10
-10 15 0 12 16 -10 60 -17 33 -40 60 -40 47z"/>
<path d="M3961 968 c-30 -5 -57 -11 -60 -14 -7 -7 111 5 118 12 10 9 -7 10
-58 2z"/>
<path d="M3680 792 c-19 -2 -39 -7 -44 -12 -6 -6 4 -8 24 -5 19 2 61 5 95 6
33 1 69 5 80 10 19 7 -78 8 -155 1z"/>
</g>
</svg>
