<svg xmlns="http://www.w3.org/2000/svg" xmlns:xlink="http://www.w3.org/1999/xlink" width="512" zoomAndPan="magnify" viewBox="0 0 384 383.999986" height="512" preserveAspectRatio="xMidYMid meet" version="1.0"><defs><clipPath id="e895aaa51e"><path d="M 34.789062 51 L 223.039062 51 L 223.039062 353.765625 L 34.789062 353.765625 Z M 34.789062 51 " clip-rule="nonzero"/></clipPath><clipPath id="8f0fe86ceb"><path d="M 199.464844 347 L 247.699219 347 L 247.699219 352.914062 L 199.464844 352.914062 Z M 199.464844 347 " clip-rule="nonzero"/></clipPath><clipPath id="206c243fdf"><path d="M 247.699219 220.933594 L 348.910156 220.933594 L 348.910156 346 L 247.699219 346 Z M 247.699219 220.933594 " clip-rule="nonzero"/></clipPath></defs><g clip-path="url(#e895aaa51e)"><path fill="#d829f6" d="M 105.449219 353.300781 C 105.261719 353.171875 105.085938 353.066406 104.898438 352.96875 C 91.410156 345.507812 84.714844 334.390625 85.015625 318.660156 C 85.429688 297.46875 85.054688 276.257812 85.074219 255.054688 C 85.074219 252.910156 85.457031 250.765625 85.691406 248.347656 C 89.785156 249.796875 93.074219 251.414062 96.539062 252.078125 C 101.601562 253.058594 104.773438 255.964844 107.679688 259.96875 C 117.742188 273.808594 128.363281 287.257812 138.203125 301.265625 C 149.726562 317.671875 160.679688 334.476562 171.820312 351.148438 C 172.347656 351.941406 172.867188 352.664062 173.425781 353.3125 L 223.066406 353.3125 C 212.222656 346.96875 203.578125 338.460938 196.207031 328.691406 C 178.132812 304.761719 160.347656 280.613281 142.480469 256.523438 C 141.765625 255.554688 141.394531 254.320312 140.671875 252.804688 C 143.167969 251.816406 145.28125 251.03125 147.355469 250.140625 C 165.59375 242.347656 179.121094 229.957031 183.683594 210.105469 C 188.316406 189.941406 185.386719 171.136719 168.519531 157.191406 C 161.960938 151.765625 154.128906 147.585938 146.347656 143.996094 C 132.605469 137.652344 118.292969 132.523438 104.5 126.25 C 94.367188 121.636719 86.632812 114.296875 83.863281 102.902344 C 79.59375 85.363281 86.839844 71.738281 98.691406 59.765625 C 101.1875 57.25 104.125 55.164062 106.859375 52.875 C 106.613281 52.328125 106.359375 51.777344 106.105469 51.230469 C 99.046875 53.902344 91.585938 55.839844 84.996094 59.382812 C 54.238281 75.925781 50.746094 111.085938 64.695312 133.835938 C 71.410156 144.796875 81.945312 151.503906 93.554688 156.367188 C 106.632812 161.839844 119.945312 166.753906 133.0625 172.15625 C 147.101562 177.941406 155.714844 188.289062 158.09375 203.460938 C 160.621094 219.5625 154.328125 233.550781 141.582031 239.414062 C 131.292969 244.140625 120.355469 244.941406 109.519531 241.949219 C 84.449219 235.027344 67.59375 218.464844 56.472656 195.492188 C 55.746094 193.996094 55.277344 192.378906 54.691406 190.824219 C 54.289062 190.921875 53.886719 191.019531 53.476562 191.117188 C 53.476562 192.671875 53.476562 194.238281 53.476562 195.796875 C 53.445312 238.367188 53.445312 280.933594 53.367188 323.515625 C 53.339844 336.691406 48.0625 346.832031 35.824219 352.742188 C 35.492188 352.898438 35.167969 353.085938 34.796875 353.300781 Z M 105.449219 353.300781 " fill-opacity="1" fill-rule="nonzero"/></g><g clip-path="url(#8f0fe86ceb)"><path fill="#d829f6" d="M 245.75 347.3125 C 183.269531 352.546875 119.710938 348.824219 56.878906 348.863281 C 55.144531 348.671875 54.8125 351.46875 56.628906 351.601562 C 112.507812 354.277344 168.53125 351.550781 224.390625 352.914062 C 227.460938 352.796875 255.027344 351.402344 245.75 347.3125 " fill-opacity="1" fill-rule="nonzero"/></g><g clip-path="url(#206c243fdf)"><path fill="#d829f6" d="M 347.515625 222.304688 C 344.441406 228.628906 340.320312 235.085938 336.824219 241.289062 C 335.304688 243.949219 333.082031 246.039062 333.738281 249 C 335.675781 250.652344 340.921875 246.71875 343.167969 248.167969 C 341.375 254.433594 324.976562 263.53125 328.664062 266.089844 C 330.949219 266.746094 334.640625 265.285156 336.410156 266.484375 C 335.167969 269.980469 330.902344 273.007812 327.996094 275.382812 C 328.199219 274.148438 324.238281 275.300781 323.339844 275.210938 C 322.339844 275.640625 317.785156 274.980469 317.988281 276.078125 C 319.058594 277.222656 325.53125 275.683594 327.507812 275.773438 C 325.351562 277.769531 308.359375 290.753906 313.296875 292.972656 C 315.46875 293.722656 318.242188 293.25 320.195312 294.152344 C 323.460938 296.484375 315.851562 301.488281 313.730469 302.871094 C 308.253906 306.390625 301.769531 311.675781 297.097656 315.917969 C 288.894531 316.5 280.769531 317.035156 272.578125 316.589844 C 273.519531 315.300781 274.101562 314.59375 275.132812 313.191406 C 276.03125 313.324219 291.757812 314.625 288.5625 312.609375 C 284.402344 312.734375 279.949219 312.785156 275.789062 312.292969 C 277.316406 310.183594 278.851562 307.964844 280.304688 306.101562 C 284.382812 307.820312 289.136719 307.808594 293.46875 307.339844 C 294.59375 307.054688 297.980469 307.6875 298.339844 306.558594 C 298.039062 305.554688 294.46875 306.589844 293.425781 306.375 C 289.328125 306.804688 284.792969 306.898438 280.917969 305.296875 C 281.738281 304.222656 282.523438 303.242188 283.570312 301.882812 C 289.996094 303.597656 306.464844 304.085938 311.75 300.433594 C 302.761719 301.679688 293.5 303.453125 284.210938 301.054688 C 285.34375 299.5625 285.699219 299.058594 286.800781 297.570312 C 292.824219 299.109375 298.785156 297.933594 304.863281 297.777344 C 306.316406 297.484375 315.019531 297.664062 315.074219 296.371094 C 306.265625 295.722656 296.5625 298.699219 287.425781 296.726562 C 288.636719 295.125 290 293.320312 291.238281 291.675781 C 291.875 291.734375 305.535156 293.757812 302.527344 291.546875 C 299.96875 291.761719 294.476562 291.152344 291.890625 290.800781 C 293.890625 288.015625 295.144531 286.195312 297.4375 283.417969 C 302.683594 284.796875 312.308594 286.757812 316.886719 284.089844 C 316.546875 283.175781 313.414062 284.464844 312.410156 284.265625 C 307.625 284.460938 302.726562 284.015625 298.09375 282.597656 C 299.546875 280.753906 300.210938 279.96875 301.679688 278.132812 C 302.433594 278.710938 320.628906 282.464844 317.078125 279.738281 C 312.195312 279.675781 307.03125 278.691406 302.347656 277.316406 C 303.265625 276.199219 303.988281 275.355469 304.714844 274.5 C 305.359375 274.839844 315.554688 277.414062 312.972656 275.125 C 310.269531 275.023438 307.960938 274.460938 305.414062 273.691406 C 306.335938 272.605469 307.210938 271.511719 308.132812 270.390625 C 313.578125 272.121094 319.214844 270.773438 324.753906 270 C 325.785156 269.632812 328.417969 269.785156 328.316406 268.921875 C 328.160156 268.269531 327.53125 268.558594 327.019531 268.605469 C 321.113281 269.546875 314.746094 271.113281 308.828125 269.511719 C 309.761719 268.300781 310.460938 267.3125 311.433594 265.992188 C 312.097656 266.183594 318.851562 266.460938 316.320312 265.042969 C 315.09375 265.15625 313.398438 265.253906 312.089844 265.101562 C 313.328125 263.460938 313.953125 262.664062 315.511719 260.707031 C 321.109375 260.90625 329.21875 260.046875 332.847656 255.730469 C 331.839844 254.910156 329.351562 257.445312 327.890625 257.707031 C 324.207031 259.378906 320.230469 259.894531 316.277344 259.738281 C 317.171875 258.59375 318.460938 256.835938 319.355469 255.648438 C 320.71875 255.25 329.347656 254.679688 329.289062 253.476562 C 328.582031 252.277344 322.019531 254.691406 320.25 254.539062 C 322.175781 251.800781 325.789062 249.324219 328.699219 247.453125 C 329.058594 246.917969 332.421875 245.402344 331.890625 244.503906 C 331.523438 243.515625 326.296875 248.144531 325.363281 248.523438 C 330.089844 242.726562 334.226562 236.34375 339.582031 231.128906 C 339.589844 226.5625 325.195312 247.488281 323.75 248.996094 C 324.886719 246.15625 326.269531 241.828125 327.898438 239.105469 C 328.269531 237.800781 331.117188 235.414062 330.417969 234.488281 C 325.066406 237.894531 323.730469 251.0625 317.835938 254.738281 C 317.273438 252.070312 317.792969 242.601562 318.273438 240 C 316.371094 236.589844 316.195312 255.195312 316.929688 255.695312 C 315.386719 257.386719 314.292969 258.625 312.765625 260.269531 C 312.167969 256.699219 312.136719 251.734375 312.367188 248.246094 C 310.65625 243.109375 311.253906 260.511719 311.773438 261.34375 C 310.246094 262.980469 309.042969 264.339844 307.78125 265.867188 C 306.261719 261.121094 305.539062 257.730469 305.675781 253.34375 C 305.480469 251.226562 306.136719 250.652344 305.136719 250.332031 C 303.613281 254.863281 305.375 261.570312 306.941406 266.898438 C 306.417969 267.539062 305.453125 268.714844 304.933594 269.335938 C 302.761719 265.824219 300.835938 261.835938 300.316406 257.914062 C 299.996094 257.1875 300.457031 254.066406 299.351562 254.121094 C 298.304688 259.296875 301.449219 265.335938 304.269531 270.101562 C 302.855469 271.792969 300.769531 274.617188 299.078125 276.816406 C 297.488281 271.808594 296.8125 265.609375 296.480469 260.558594 C 293.820312 256.777344 297.566406 277.128906 298.195312 277.964844 C 297.132812 279.3125 295.773438 281.09375 294.542969 282.496094 C 291.375 277.191406 291.757812 269.042969 290.625 263.636719 C 288.804688 267.074219 291.679688 279.699219 293.804688 283.480469 C 292.15625 285.414062 290.242188 288.355469 288.449219 290.355469 C 286.226562 285.21875 285.460938 280.949219 285.28125 274.535156 C 284.925781 270.894531 285.691406 269.703125 284.691406 269.125 C 283.125 274.710938 285.003906 285.800781 287.601562 291.339844 C 287.121094 291.910156 286.679688 292.402344 286.21875 292.953125 C 285.582031 292.28125 284.414062 288.09375 283.644531 288.589844 C 282.679688 289.015625 285.222656 292.859375 285.550781 293.742188 C 284.929688 294.464844 284.300781 295.253906 283.671875 296.007812 C 280.988281 292.242188 279.394531 286.910156 277.824219 282.679688 C 274.605469 279.808594 282.121094 296.421875 283.019531 296.777344 C 282.167969 297.734375 281.574219 298.378906 280.308594 299.730469 C 277.441406 296.582031 276.574219 291.109375 275.878906 287.144531 C 275.886719 287.023438 275.867188 286.027344 275.335938 286.167969 C 274.316406 286.601562 275.207031 287.816406 275.429688 289.964844 C 276.230469 294.378906 276.976562 297.132812 279.617188 300.472656 C 277.777344 302.449219 276.5625 304 274.769531 306.300781 C 273.421875 303.660156 271.632812 298.074219 271.015625 295.164062 C 270.433594 294.039062 270.597656 288.953125 269.457031 288.65625 C 268.222656 292.011719 272.359375 303.59375 274.097656 307.15625 C 272.898438 308.59375 271.484375 310.421875 270.355469 311.929688 C 267.765625 307.996094 266.421875 302.027344 265.316406 297.535156 C 265.121094 296.964844 265.285156 296.296875 264.59375 296.316406 C 263.523438 298.65625 267.914062 310.289062 269.742188 312.746094 C 269.257812 313.402344 268.5625 314.355469 268.132812 314.960938 C 267.929688 314.640625 267.667969 314.289062 267.449219 314.007812 C 267.078125 313.507812 266.300781 314.109375 266.6875 314.601562 C 266.941406 314.914062 267.316406 315.449219 267.515625 315.785156 C 266.492188 317.15625 265.519531 318.4375 264.472656 319.808594 C 262.011719 315.738281 261.023438 310.257812 259.804688 305.761719 C 257.054688 303.808594 262.777344 319.757812 263.851562 320.648438 C 262.703125 322.238281 262.039062 323.09375 261.113281 324.519531 C 253.054688 307.324219 252.503906 311.019531 260.527344 325.433594 C 259.523438 327.042969 258.472656 328.730469 257.5625 330.359375 C 255.691406 327.539062 255.328125 324.101562 253.984375 321.121094 C 251.535156 319.148438 256.238281 330.652344 257.007812 331.265625 C 256.539062 332.011719 256.023438 332.859375 255.472656 333.710938 C 251.820312 327.125 249.183594 317.871094 249.332031 310.351562 C 256.46875 320.507812 252.082031 302.707031 256.738281 294.945312 C 262.117188 308.957031 261.148438 285.660156 270.125 275.027344 C 270.753906 276.636719 270.3125 279.605469 272.164062 280.375 C 278.550781 274.246094 281.488281 260.183594 289.527344 255.695312 C 290.730469 256.953125 291.644531 258.324219 293.308594 256.601562 C 299.132812 251.925781 305.195312 242.6875 311.910156 238.839844 C 312 239.78125 311.410156 241.15625 312.398438 241.585938 C 323.683594 235.273438 334.824219 224.933594 347.761719 221.707031 C 347.878906 222.039062 347.71875 221.527344 347.515625 222.304688 Z M 295.757812 317.082031 C 292.261719 320.273438 289.039062 324.019531 296.042969 324.464844 C 271.011719 329.445312 281.90625 329.707031 297.882812 324.796875 C 297.964844 324.824219 298.066406 324.855469 298.113281 324.871094 C 287.503906 333.445312 272.921875 331.515625 260.449219 333.378906 C 261.648438 331.726562 262.582031 330.199219 263.714844 328.644531 C 264.640625 329.300781 279.238281 330.394531 276.34375 328.34375 C 272.566406 328.5 268.046875 328.835938 264.335938 327.792969 C 265.953125 325.5625 267.355469 323.671875 269.007812 321.410156 C 270.644531 322.425781 299.914062 319.269531 288.148438 319.269531 C 282.085938 319.910156 275.808594 320.839844 269.683594 320.492188 C 270.226562 319.757812 271.246094 318.382812 271.886719 317.519531 C 279.824219 317.984375 287.988281 317.554688 295.902344 316.957031 C 295.851562 317 295.808594 317.039062 295.757812 317.082031 Z M 347.710938 221.566406 C 347.710938 221.558594 347.703125 221.53125 347.699219 221.5 C 347.707031 221.527344 347.714844 221.550781 347.722656 221.578125 C 347.71875 221.574219 347.710938 221.570312 347.710938 221.566406 Z M 348.910156 221.414062 C 342.792969 217.730469 319.414062 236.246094 313.03125 240.128906 C 314.800781 229.203125 293.777344 256.488281 291.664062 256.292969 C 285.746094 248.8125 275.910156 275.589844 272.210938 279.179688 C 271.253906 277.875 271.871094 274.460938 270.300781 273.769531 C 264.328125 279.054688 262.058594 290.902344 259.609375 298.179688 C 258.875 297.476562 258.109375 293.433594 256.59375 293.398438 C 252.585938 297.949219 253.347656 306.320312 252.320312 311.941406 C 242.363281 299.128906 251.671875 332.429688 254.847656 334.644531 C 252.804688 337.816406 250.96875 340.9375 249.453125 344.382812 C 248.613281 345.917969 251.1875 346.261719 251.558594 344.910156 C 253.664062 341.691406 256.171875 338.890625 258.695312 335.726562 C 265.515625 332.730469 273.222656 335.273438 280.371094 333.539062 C 285.488281 333.167969 311.800781 324.261719 293.441406 322.3125 C 297.480469 316.28125 303.195312 312.882812 309.164062 307.933594 C 313.164062 304.351562 324.535156 299.648438 322.070312 293.902344 C 320.269531 291.347656 316.609375 292.429688 313.867188 291.53125 C 315.449219 284.574219 354.285156 262.191406 329.804688 264.652344 C 332.207031 261.253906 337.847656 257.617188 340.660156 254.429688 C 348.335938 245.421875 343.246094 245.507812 334.890625 248.050781 C 338.097656 238.972656 346.378906 230.558594 348.847656 221.21875 C 348.871094 221.296875 348.910156 221.433594 348.910156 221.414062 " fill-opacity="1" fill-rule="nonzero"/></g><path fill="#d829f6" d="M 323.15625 264.839844 C 322.203125 265.148438 319.738281 264.710938 319.527344 265.796875 C 320.046875 266.757812 322.21875 265.652344 323.25 265.796875 C 323.871094 265.746094 323.777344 264.769531 323.15625 264.839844 " fill-opacity="1" fill-rule="nonzero"/><path fill="#d829f6" d="M 283.164062 283.410156 C 282.585938 282.414062 281.652344 272.589844 280.441406 275.375 C 281 278.523438 281.84375 281.863281 282.53125 284.988281 C 282.664062 285.597656 283.621094 285.378906 283.46875 284.769531 C 283.40625 284.496094 283.304688 284.050781 283.164062 283.410156 " fill-opacity="1" fill-rule="nonzero"/><path fill="#d829f6" d="M 262.714844 304.507812 C 260.8125 303.566406 262.691406 306.363281 262.953125 306.933594 C 263.90625 308.261719 264.820312 312.980469 266.265625 313.015625 C 266.960938 312.015625 263.460938 306.015625 262.714844 304.507812 " fill-opacity="1" fill-rule="nonzero"/><path fill="#d829f6" d="M 309.574219 303.023438 C 308.652344 303.476562 302.722656 304.605469 303.109375 305.574219 C 303.464844 306.472656 306.132812 304.902344 306.871094 304.820312 C 307.28125 304.660156 311.960938 303.707031 309.574219 303.023438 " fill-opacity="1" fill-rule="nonzero"/><path fill="#d829f6" d="M 310.519531 291.609375 C 309.722656 291.722656 306.910156 290.769531 306.8125 291.796875 C 306.898438 292.667969 308.730469 292.226562 309.398438 292.472656 C 309.882812 292.527344 309.960938 292.535156 310.453125 292.570312 C 311.078125 292.621094 311.144531 291.640625 310.519531 291.609375 " fill-opacity="1" fill-rule="nonzero"/><path fill="#d829f6" d="M 270.53125 284.433594 C 270.242188 283.867188 269.765625 277.136719 268.699219 279.824219 C 268.972656 281.386719 269.445312 284.058594 269.785156 285.585938 C 269.898438 286.203125 270.859375 286.007812 270.730469 285.394531 C 270.679688 285.160156 270.617188 284.835938 270.53125 284.433594 " fill-opacity="1" fill-rule="nonzero"/><path fill="#d829f6" d="M 257.898438 301.1875 C 257.484375 300.019531 257.59375 300.324219 257.292969 299.59375 C 256.691406 298.746094 256.070312 299.8125 256.585938 300.394531 C 256.730469 300.703125 257.371094 302.632812 257.496094 303.011719 C 257.574219 303.265625 257.847656 303.40625 258.101562 303.324219 C 258.875 302.84375 258.074219 302.117188 257.898438 301.1875 " fill-opacity="1" fill-rule="nonzero"/><path fill="#d829f6" d="M 301.070312 310.8125 C 298.964844 311.046875 296.613281 311.53125 294.527344 311.726562 C 293.875 311.929688 292.320312 311.5625 292.132812 312.316406 C 291.863281 313.46875 296.261719 312.367188 297.023438 312.382812 C 297.574219 312.140625 303.496094 311.953125 301.070312 310.8125 " fill-opacity="1" fill-rule="nonzero"/><path fill="#d829f6" d="M 288.65625 323.773438 C 283.628906 324.847656 276.269531 323.695312 271.878906 325.488281 C 272.089844 326.476562 277.511719 325.304688 278.527344 325.511719 C 279.535156 325.300781 291.664062 325.359375 288.65625 323.773438 " fill-opacity="1" fill-rule="nonzero"/></svg>