<svg xmlns="http://www.w3.org/2000/svg" xmlns:xlink="http://www.w3.org/1999/xlink" width="500" zoomAndPan="magnify" viewBox="0 0 375 374.999991" height="500" preserveAspectRatio="xMidYMid meet" version="1.0"><defs><clipPath id="064b70f302"><path d="M 98 111.417969 L 273 111.417969 L 273 178 L 98 178 Z M 98 111.417969 " clip-rule="nonzero"/></clipPath><clipPath id="13f43dafbe"><path d="M 88 177 L 277 177 L 277 299.667969 L 88 299.667969 Z M 88 177 " clip-rule="nonzero"/></clipPath></defs><g clip-path="url(#064b70f302)"><path fill="#81dbf8" d="M 102.445312 162.957031 C 117.730469 134.191406 147.992188 114.5625 182.753906 114.5625 C 223.222656 114.5625 257.597656 141.171875 269.332031 177.828125 C 269.964844 177.707031 270.59375 177.585938 271.222656 177.480469 C 271.640625 177.410156 272.0625 177.335938 272.480469 177.269531 C 271.589844 174.441406 270.566406 171.644531 269.40625 168.894531 C 264.667969 157.683594 257.886719 147.621094 249.25 138.976562 C 240.613281 130.335938 230.554688 123.546875 219.359375 118.808594 C 207.761719 113.898438 195.445312 111.410156 182.753906 111.410156 C 170.058594 111.410156 157.742188 113.898438 146.148438 118.808594 C 134.945312 123.546875 124.890625 130.335938 116.253906 138.976562 C 109.058594 146.179688 103.15625 154.371094 98.648438 163.386719 C 99.453125 163.289062 100.253906 163.195312 101.0625 163.105469 C 101.519531 163.050781 101.984375 163.003906 102.445312 162.957031 Z M 102.445312 162.957031 " fill-opacity="1" fill-rule="nonzero"/></g><g clip-path="url(#13f43dafbe)"><path fill="#81dbf8" d="M 272.453125 190.8125 C 273.234375 195.601562 273.644531 200.519531 273.644531 205.53125 C 273.644531 255.6875 232.871094 296.492188 182.75 296.492188 C 132.632812 296.492188 91.859375 255.6875 91.859375 205.53125 C 91.859375 195.726562 93.417969 186.285156 96.296875 177.429688 C 95.136719 177.601562 93.972656 177.777344 92.808594 177.960938 C 90.085938 186.847656 88.707031 196.085938 88.707031 205.53125 C 88.707031 218.234375 91.195312 230.5625 96.101562 242.164062 C 100.839844 253.375 107.617188 263.4375 116.253906 272.082031 C 124.890625 280.722656 134.949219 287.511719 146.148438 292.25 C 157.742188 297.160156 170.058594 299.648438 182.753906 299.648438 C 195.445312 299.648438 207.765625 297.160156 219.359375 292.25 C 230.558594 287.511719 240.613281 280.722656 249.25 272.082031 C 257.886719 263.4375 264.667969 253.371094 269.40625 242.164062 C 274.308594 230.558594 276.796875 218.234375 276.796875 205.53125 C 276.796875 200.359375 276.378906 195.257812 275.558594 190.234375 C 274.519531 190.410156 273.484375 190.605469 272.453125 190.8125 Z M 272.453125 190.8125 " fill-opacity="1" fill-rule="nonzero"/></g><path fill="#81dbf8" d="M 420.128906 194.773438 C 419.792969 194.386719 419.320312 194.035156 418.707031 193.730469 C 418.09375 193.425781 417.425781 193.214844 416.703125 193.105469 C 415.980469 192.996094 415.253906 193.050781 414.53125 193.273438 C 413.808594 193.496094 413.140625 193.859375 412.527344 194.359375 C 407.519531 195.417969 402.160156 195.820312 396.453125 195.570312 C 390.75 195.320312 384.75 194.679688 378.457031 193.652344 C 372.167969 192.621094 365.65625 191.367188 358.917969 189.890625 C 352.183594 188.414062 345.28125 186.992188 338.210938 185.625 C 331.140625 184.261719 323.929688 183.09375 316.582031 182.117188 C 309.234375 181.140625 301.84375 180.667969 294.410156 180.695312 C 286.980469 180.722656 279.546875 181.378906 272.117188 182.65625 C 264.6875 183.941406 257.296875 186.140625 249.945312 189.257812 C 248.71875 189.925781 247.371094 190.972656 245.898438 192.390625 C 244.421875 193.8125 242.847656 195.429688 241.179688 197.238281 C 239.507812 199.046875 237.742188 200.957031 235.875 202.960938 C 234.011719 204.96875 232.078125 206.847656 230.074219 208.601562 C 228.070312 210.355469 225.996094 211.902344 223.851562 213.238281 C 221.710938 214.578125 219.550781 215.496094 217.382812 215.996094 C 216.601562 216.164062 215.765625 216.261719 214.875 216.289062 C 213.984375 216.316406 213.175781 216.203125 212.457031 215.953125 C 211.730469 215.707031 211.132812 215.300781 210.660156 214.742188 C 210.1875 214.1875 209.949219 213.433594 209.949219 212.484375 C 209.949219 211.539062 210.1875 210.507812 210.660156 209.394531 C 211.132812 208.277344 211.6875 207.121094 212.328125 205.921875 C 212.96875 204.726562 213.582031 203.53125 214.167969 202.332031 C 214.753906 201.132812 215.15625 199.964844 215.378906 198.820312 C 215.597656 197.679688 215.53125 196.589844 215.171875 195.5625 C 214.808594 194.53125 213.984375 193.597656 212.707031 192.761719 C 212.152344 192.429688 211.398438 192.066406 210.453125 191.675781 C 209.503906 191.289062 208.558594 190.871094 207.613281 190.421875 C 206.664062 189.980469 205.828125 189.519531 205.109375 189.042969 C 204.382812 188.570312 203.964844 188.054688 203.855469 187.496094 C 203.800781 187.328125 203.9375 187.136719 204.273438 186.910156 C 204.605469 186.691406 204.980469 186.425781 205.398438 186.117188 C 205.816406 185.8125 206.179688 185.480469 206.484375 185.113281 C 206.789062 184.75 206.886719 184.320312 206.773438 183.820312 C 206.71875 183.316406 206.511719 182.886719 206.148438 182.523438 C 205.785156 182.160156 205.339844 181.894531 204.8125 181.730469 C 204.28125 181.5625 203.699219 181.507812 203.058594 181.5625 C 202.414062 181.617188 201.792969 181.8125 201.179688 182.148438 C 199.5625 183.152344 198.480469 184.363281 197.921875 185.78125 C 197.367188 187.203125 197.199219 188.46875 197.421875 189.585938 C 197.511719 190.011719 197.648438 190.417969 197.828125 190.804688 C 194.558594 192.582031 190.558594 194.847656 185.816406 197.605469 C 181.027344 200.390625 176.046875 203.484375 170.867188 206.882812 C 169.699219 205.828125 168.40625 204.738281 166.984375 203.625 C 165.5625 202.507812 164.199219 201.339844 162.890625 200.113281 C 161.585938 198.886719 160.457031 197.578125 159.511719 196.183594 C 158.5625 194.789062 158.007812 193.257812 157.839844 191.585938 C 157.671875 189.914062 157.867188 188.398438 158.425781 187.03125 C 158.980469 185.667969 159.761719 184.621094 160.761719 183.898438 C 161.765625 183.175781 162.933594 182.855469 164.269531 182.9375 C 165.609375 183.023438 166.996094 183.675781 168.445312 184.902344 C 169.839844 186.070312 171.089844 186.542969 172.203125 186.324219 C 173.316406 186.101562 174.082031 185.542969 174.5 184.652344 C 174.917969 183.761719 174.875 182.769531 174.375 181.683594 C 173.871094 180.597656 172.730469 179.804688 170.949219 179.304688 C 163.378906 175.347656 155.722656 172.464844 147.984375 170.65625 C 140.25 168.84375 132.511719 167.785156 124.769531 167.480469 C 117.035156 167.175781 109.324219 167.453125 101.640625 168.316406 C 93.960938 169.179688 86.417969 170.292969 79.011719 171.660156 C 71.609375 173.023438 64.371094 174.488281 57.300781 176.042969 C 50.230469 177.605469 43.410156 178.945312 36.839844 180.054688 C 30.273438 181.167969 23.992188 181.894531 18.007812 182.230469 C 12.023438 182.5625 6.414062 182.171875 1.183594 181.058594 C 0.570312 180.558594 -0.0976562 180.195312 -0.820312 179.972656 C -1.542969 179.753906 -2.269531 179.695312 -2.992188 179.804688 C -3.714844 179.917969 -4.386719 180.125 -4.996094 180.429688 C -5.609375 180.738281 -6.082031 181.085938 -6.417969 181.472656 C -6.75 181.867188 -6.859375 182.253906 -6.75 182.644531 C -6.636719 183.035156 -6.25 183.339844 -5.582031 183.5625 C 1.042969 184.792969 7.808594 185.304688 14.707031 185.109375 C 21.613281 184.914062 28.585938 184.300781 35.628906 183.269531 C 42.671875 182.238281 49.769531 180.972656 56.921875 179.464844 C 64.074219 177.964844 71.257812 176.515625 78.464844 175.121094 C 85.675781 173.726562 92.867188 172.542969 100.050781 171.570312 C 107.230469 170.59375 114.359375 170.132812 121.429688 170.1875 C 128.496094 170.246094 135.5 170.96875 142.429688 172.363281 C 149.359375 173.753906 156.164062 176.152344 162.84375 179.550781 C 161.34375 180.050781 159.9375 180.734375 158.628906 181.597656 C 157.320312 182.460938 156.164062 183.464844 155.160156 184.605469 C 154.160156 185.75 153.351562 187.015625 152.742188 188.410156 C 152.125 189.804688 151.796875 191.25 151.738281 192.757812 C 151.628906 195.042969 152.140625 196.933594 153.28125 198.4375 C 154.421875 199.941406 155.828125 201.28125 157.5 202.449219 C 159.167969 203.617188 160.9375 204.71875 162.800781 205.75 C 164.664062 206.78125 166.238281 207.910156 167.519531 209.136719 C 163.789062 211.640625 160.171875 214.261719 156.664062 216.992188 C 153.15625 219.71875 150.011719 222.464844 147.226562 225.222656 C 144.445312 227.976562 142.132812 230.722656 140.296875 233.453125 C 138.460938 236.179688 137.375 238.800781 137.042969 241.308594 C 136.820312 243.035156 136.917969 244.523438 137.332031 245.777344 C 137.75 247.03125 138.417969 248.0625 139.335938 248.871094 C 140.257812 249.679688 141.371094 250.277344 142.675781 250.667969 C 143.984375 251.058594 145.417969 251.253906 146.980469 251.253906 C 148.816406 251.253906 150.808594 250.78125 152.949219 249.832031 C 155.09375 248.886719 157.234375 247.617188 159.382812 246.03125 C 161.523438 244.445312 163.582031 242.617188 165.558594 240.554688 C 167.535156 238.492188 169.277344 236.324219 170.777344 234.039062 C 173.617188 229.691406 175.398438 225.488281 176.121094 221.417969 C 176.84375 217.351562 175.984375 213.5625 173.53125 210.050781 C 176.148438 208.269531 178.75 206.570312 181.339844 204.953125 C 183.929688 203.335938 186.375 201.820312 188.6875 200.398438 C 190.996094 198.976562 193.152344 197.671875 195.15625 196.46875 C 197.101562 195.308594 198.777344 194.316406 200.199219 193.496094 C 200.644531 193.828125 201.121094 194.121094 201.628906 194.382812 C 202.65625 194.910156 203.757812 195.289062 204.925781 195.507812 C 206.09375 195.730469 207.234375 195.757812 208.351562 195.59375 C 207.402344 196.820312 206.527344 198.28125 205.71875 199.980469 C 204.910156 201.679688 204.296875 203.449219 203.882812 205.285156 C 203.464844 207.125 203.324219 208.960938 203.464844 210.800781 C 203.601562 212.640625 204.203125 214.3125 205.261719 215.816406 C 206.652344 217.597656 208.363281 218.742188 210.394531 219.242188 C 212.429688 219.746094 214.445312 219.828125 216.449219 219.492188 C 218.5625 219.101562 220.707031 218.363281 222.878906 217.277344 C 225.050781 216.191406 227.195312 214.882812 229.308594 213.347656 C 231.421875 211.816406 233.453125 210.160156 235.402344 208.375 C 237.351562 206.59375 239.175781 204.8125 240.875 203.027344 C 242.570312 201.246094 244.101562 199.546875 245.464844 197.929688 C 246.828125 196.3125 247.984375 194.917969 248.933594 193.75 C 255.667969 190.128906 262.542969 187.554688 269.558594 186.019531 C 276.570312 184.488281 283.65625 183.640625 290.808594 183.472656 C 297.960938 183.304688 305.171875 183.707031 312.4375 184.683594 C 319.703125 185.660156 326.964844 186.84375 334.230469 188.234375 C 341.5 189.625 348.761719 191.089844 356.027344 192.621094 C 363.292969 194.152344 370.484375 195.449219 377.613281 196.507812 C 384.738281 197.566406 391.78125 198.195312 398.738281 198.390625 C 405.699219 198.585938 412.542969 198.066406 419.28125 196.84375 C 419.949219 196.621094 420.335938 196.316406 420.449219 195.921875 C 420.570312 195.558594 420.460938 195.167969 420.128906 194.773438 Z M 170.121094 215.921875 C 169.839844 217.816406 169.035156 220.027344 167.699219 222.566406 C 166.363281 225.097656 164.441406 228.09375 161.9375 231.546875 C 160.710938 233.21875 159.417969 234.804688 158.054688 236.308594 C 156.6875 237.8125 155.324219 239.191406 153.960938 240.445312 C 152.597656 241.699219 151.261719 242.796875 149.953125 243.746094 C 148.648438 244.691406 147.4375 245.390625 146.324219 245.835938 C 145.265625 246.28125 144.332031 246.421875 143.527344 246.253906 C 142.71875 246.085938 142.078125 245.738281 141.605469 245.210938 C 141.132812 244.679688 140.84375 243.984375 140.730469 243.121094 C 140.617188 242.257812 140.703125 241.351562 140.980469 240.40625 C 141.535156 238.511719 142.703125 236.4375 144.488281 234.179688 C 146.269531 231.921875 148.46875 229.597656 151.082031 227.203125 C 153.699219 224.804688 156.621094 222.371094 159.851562 219.890625 C 163.078125 217.414062 166.417969 214.976562 169.871094 212.582031 C 170.199219 213.578125 170.285156 214.695312 170.121094 215.921875 Z M 170.121094 215.921875 " fill-opacity="1" fill-rule="nonzero"/></svg>